<?xml version="1.0" standalone="no"?>
<!DOCTYPE svg PUBLIC "-//W3C//DTD SVG 20010904//EN"
 "http://www.w3.org/TR/2001/REC-SVG-20010904/DTD/svg10.dtd">
<svg version="1.0" xmlns="http://www.w3.org/2000/svg"
 width="41.000000pt" height="42.000000pt" viewBox="0 0 41.000000 42.000000"
 preserveAspectRatio="xMidYMid meet">
<metadata>
Created by potrace 1.16, written by Peter Selinger 2001-2019
</metadata>
<g transform="translate(0.000000,42.000000) scale(0.100000,-0.100000)"
fill="#000000" stroke="none">
<path d="M143 395 c-13 -9 -23 -25 -23 -37 0 -11 -11 -29 -25 -40 -36 -28 -60
-77 -45 -92 9 -8 15 -6 24 8 24 39 48 66 58 66 6 0 3 -9 -7 -20 -10 -11 -15
-23 -11 -27 3 -4 38 -7 76 -8 l69 -1 17 63 c16 59 16 65 1 80 -23 23 -107 28
-134 8z"/>
<path d="M306 301 c-4 -6 0 -21 9 -34 20 -31 36 -87 25 -87 -4 0 -11 16 -14
36 -7 32 -29 54 -43 41 -3 -3 0 -20 5 -37 6 -17 7 -28 3 -25 -5 2 -12 -6 -15
-20 -4 -14 -16 -35 -27 -46 l-21 -21 48 -49 c53 -54 72 -56 112 -13 27 31 33
124 7 124 -10 0 -15 10 -15 28 0 30 -38 103 -57 109 -6 2 -14 -1 -17 -6z"/>
<path d="M84 211 c-5 -24 -12 -30 -45 -35 -39 -6 -39 -7 -39 -52 0 -56 12 -79
51 -100 24 -12 33 -13 45 -3 11 9 21 9 40 0 38 -17 104 -14 104 4 0 10 -10 15
-33 15 -18 0 -41 6 -51 13 -16 12 -14 13 18 9 28 -3 36 -1 36 12 0 9 -8 16
-21 16 -12 0 -17 4 -14 11 4 6 -2 19 -14 30 -19 18 -26 39 -22 63 1 5 -5 6
-12 3 -10 -4 -13 0 -10 12 3 11 -2 21 -11 24 -12 5 -18 -1 -22 -22z"/>
</g>
</svg>
