<?xml version="1.0" standalone="no"?>
<!DOCTYPE svg PUBLIC "-//W3C//DTD SVG 20010904//EN"
 "http://www.w3.org/TR/2001/REC-SVG-20010904/DTD/svg10.dtd">
<svg version="1.0" xmlns="http://www.w3.org/2000/svg"
 width="41.000000pt" height="42.000000pt" viewBox="0 0 41.000000 42.000000"
 preserveAspectRatio="xMidYMid meet">
<metadata>
Created by potrace 1.16, written by Peter Selinger 2001-2019
</metadata>
<g transform="translate(0.000000,42.000000) scale(0.100000,-0.100000)"
fill="#000000" stroke="none">
<path d="M207 414 c-4 -4 -7 -20 -7 -36 0 -26 3 -28 40 -28 29 0 40 -4 40 -15
0 -11 -11 -15 -40 -15 -36 0 -40 -2 -40 -25 0 -18 5 -25 20 -25 11 0 20 -7 20
-15 0 -8 -9 -15 -20 -15 -16 0 -20 -7 -20 -30 0 -28 2 -30 40 -30 29 0 40 -4
40 -15 0 -11 -11 -15 -40 -15 -36 0 -40 -2 -40 -25 0 -18 5 -25 20 -25 11 0
20 -7 20 -15 0 -8 -9 -15 -20 -15 -16 0 -20 -7 -20 -35 l0 -36 88 3 87 3 0
205 0 205 -80 3 c-45 1 -84 0 -88 -4z"/>
<path d="M60 370 c-29 -37 -30 -40 -11 -40 20 0 21 -4 21 -165 l0 -165 30 0
30 0 0 164 c0 158 1 165 20 168 19 3 19 5 -10 41 -17 20 -35 37 -40 37 -5 0
-23 -18 -40 -40z"/>
</g>
</svg>
