<?xml version="1.0" standalone="no"?>
<!DOCTYPE svg PUBLIC "-//W3C//DTD SVG 20010904//EN"
 "http://www.w3.org/TR/2001/REC-SVG-20010904/DTD/svg10.dtd">
<svg version="1.0" xmlns="http://www.w3.org/2000/svg"
 width="42.000000pt" height="42.000000pt" viewBox="0 0 42.000000 42.000000"
 preserveAspectRatio="xMidYMid meet">
<metadata>
Created by potrace 1.16, written by Peter Selinger 2001-2019
</metadata>
<g transform="translate(0.000000,42.000000) scale(0.100000,-0.100000)"
fill="#000000" stroke="none">
<path d="M227 402 c-14 -15 -17 -41 -17 -134 0 -85 -4 -123 -16 -147 -13 -25
-13 -37 -4 -66 14 -41 35 -55 85 -55 69 0 111 82 70 136 -19 25 -19 34 0 34 8
0 15 9 15 20 0 11 -7 20 -15 20 -9 0 -15 9 -15 25 0 20 5 25 25 25 16 0 25 6
25 15 0 9 -9 15 -25 15 -20 0 -25 5 -25 24 0 21 6 25 33 28 42 4 44 32 2 36
-16 2 -35 12 -43 23 -17 25 -73 25 -95 1z"/>
</g>
</svg>
